:SAMPLES-PER-SECOND 24
:FULLY-SPECIFIED
:DEGREES
142
root  0.338811 34.3177 5.26178 -136.378 -87.3768 133.394
RightUpLeg  -7.73125 -1.3145 -5.05455
RightLeg  66.2748 2.31539 5.13882
RightFoot  -29.4087 0.678228 5.52097
RightToes  -1.46215e-006 3.27826e-006 1.63871e-007
Spine  7.19269 2.29304 0.270434
Spine1  7.91166 2.8388 -3.62842
HEad  -7.55486 0.474415 -0.639837
LeftShoulder1  1.63227 -3.24723 -17.5392
LeftArm  -32.9318 -52.7526 7.4118
LeftForeArm  65.8429 -78.9982 -67.3236
LeftHand  -0.758026 2.90881 34.8996
RightShoulder  2.67798 5.61582 23.1988
RightArm  -31.0828 46.488 5.75504
RightForeArm  37.4906 70.4378 28.8169
RightHand  -3.37291 6.5204 -32.3245
LeftUpLeg  -40.2455 -2.88414 -2.88171
LeftLeg  51.0434 -0.165886 0.265428
LeftFoot  -5.85368 -0.0157907 1.06666
LeftToes  1.24762e-006 1.46925e-008 1.29056e-009
143
root  0.25254 34.2694 5.2396 -137.458 -87.3963 134.497
RightUpLeg  -7.61929 -1.55794 -5.11712
RightLeg  66.4417 2.45274 5.5269
RightFoot  -29.6152 0.647162 5.27405
RightToes  -1.46215e-006 3.27826e-006 1.63871e-007
Spine  6.22553 2.44337 0.0313199
Spine1  9.38696 2.91505 -3.19667
HEad  -8.38336 0.341162 -0.827329
LeftShoulder1  1.75454 -3.34396 -19.1021
LeftArm  -24.3746 -43.5618 3.42574
LeftForeArm  80.78 -79.7788 -80.5286
LeftHand  -0.553011 3.6009 35.4422
RightShoulder  2.95912 5.63686 26.3567
RightArm  -27.0393 35.1633 5.46931
RightForeArm  50.2733 75.436 41.1422
RightHand  -3.2204 5.92142 -32.4801
LeftUpLeg  -40.3665 -3.07071 -2.80144
LeftLeg  51.5182 0.0503045 0.558346
LeftFoot  -6.0545 -0.0136106 1.08455
LeftToes  1.24762e-006 1.46925e-008 1.29056e-009
144
root  0.135651 34.1975 5.22609 -136.934 -87.3564 134.246
RightUpLeg  -7.70456 -1.82148 -5.24354
RightLeg  66.6669 2.48863 5.68154
RightFoot  -30.0475 0.661057 5.25226
RightToes  -1.46215e-006 3.27826e-006 1.63871e-007
Spine  5.47673 2.52273 -0.54214
Spine1  10.3746 2.76694 -2.37444
HEad  -9.61729 0.453065 -1.50494
LeftShoulder1  1.77774 -3.24937 -19.8569
LeftArm  -16.5802 -31.1429 -0.800249
LeftForeArm  96.6361 -79.9234 -95.3752
LeftHand  -0.329015 4.3519 36.817
RightShoulder  3.11538 5.64692 28.0903
RightArm  -23.4657 21.5003 5.91528
RightForeArm  72.7332 79.1849 62.8658
RightHand  -3.04067 4.98018 -33.3884
LeftUpLeg  -40.8198 -3.37259 -2.72201
LeftLeg  52.114 0.055974 0.574705
LeftFoot  -6.48758 0.00210436 0.871695
LeftToes  1.24762e-006 1.46925e-008 1.29056e-009
145
root  -0.0192436 34.1349 5.21156 -135.604 -87.3332 133.275
RightUpLeg  -7.78774 -1.75709 -5.2251
RightLeg  66.6659 2.40973 5.48137
RightFoot  -30.2087 0.661734 5.21769
RightToes  -1.46215e-006 3.27826e-006 1.63871e-007
Spine  4.99888 2.53844 -1.80517
Spine1  10.5798 2.20842 -0.434527
HEad  -10.1699 0.957587 -2.56621
LeftShoulder1  1.86463 -3.22358 -21.3401
LeftArm  -9.57327 -16.4663 -3.81677
LeftForeArm  103.362 -79.8986 -100.371
LeftHand  -0.333238 4.41902 40.1312
RightShoulder  3.18495 5.63498 28.9198
RightArm  -19.7808 6.76563 6.78722
RightForeArm  90.7496 80.2699 80.2161
RightHand  -3.29776 4.91193 -36.2341
LeftUpLeg  -41.2856 -3.55803 -2.74888
LeftLeg  52.772 0.362034 1.01766
LeftFoot  -7.00469 0.00128864 1.08092
LeftToes  1.24762e-006 1.46925e-008 1.29056e-009
146
root  -0.18488 34.0865 5.19132 -132.454 -87.186 130.582
RightUpLeg  -7.90167 -1.47243 -5.3071
RightLeg  66.6548 2.43453 5.54111
RightFoot  -30.698 0.693551 5.28824
RightToes  -1.46215e-006 3.27826e-006 1.63871e-007
Spine  4.40273 2.4007 -3.49734
Spine1  10.7497 1.44793 1.63104
HEad  -10.3882 1.84161 -3.27716
LeftShoulder1  2.01494 -3.33316 -23.2088
LeftArm  -4.55033 0.213715 -4.71783
LeftForeArm  91.2328 -80.4 -84.3208
LeftHand  -0.138946 4.97296 40.3641
RightShoulder  3.26118 5.60002 29.9138
RightArm  -15.4525 -8.23995 6.98107
RightForeArm  85.0563 80.2574 72.6646
RightHand  -3.62939 5.45233 -37.7856
LeftUpLeg  -41.7252 -3.62524 -2.98196
LeftLeg  53.2771 0.506683 1.241
LeftFoot  -7.35125 -0.00408764 1.38579
LeftToes  1.24762e-006 1.46925e-008 1.29056e-009
147
root  -0.333209 34.0688 5.17336 -133.861 -86.9258 132.548
RightUpLeg  -8.05321 -1.00805 -5.29956
RightLeg  66.3995 2.43632 5.47354
RightFoot  -31.2858 0.799147 5.75297
RightToes  -1.46215e-006 3.27826e-006 1.63871e-007
Spine  3.51808 2.14195 -4.20193
Spine1  11.2023 1.05506 2.01086
HEad  -10.5757 2.58785 -3.05284
LeftShoulder1  1.9266 -3.00821 -23.3289
LeftArm  -2.90579 14.0241 -7.93975
LeftForeArm  45.4689 -73.3083 -33.2849
LeftHand  -0.251429 4.62181 38.5451
RightShoulder  3.3304 5.5658 30.8287
RightArm  -11.8302 -19.2798 7.81371
RightForeArm  46.8072 71.9679 30.131
RightHand  -4.06664 6.34284 -39.0214
LeftUpLeg  -42.2575 -3.4241 -3.01517
LeftLeg  53.5333 0.265184 0.901364
LeftFoot  -7.60222 -0.001272 1.43987
LeftToes  1.24762e-006 1.46925e-008 1.29056e-009
148
root  -0.466415 34.1844 5.17016 -138.621 -86.9677 137.476
RightUpLeg  -7.44861 -0.614254 -4.92365
RightLeg  64.9898 2.39803 5.0173
RightFoot  -31.0341 0.795199 5.79569
RightToes  -1.46215e-006 3.27826e-006 1.63871e-007
Spine  2.74902 1.80464 -3.58002
Spine1  11.4168 0.930358 1.29622
HEad  -9.34962 3.20768 -2.67867
LeftShoulder1  1.63835 -2.35106 -21.6215
LeftArm  -1.37116 17.6848 -15.16
LeftForeArm  22.1917 -43.2824 -9.04079
LeftHand  -0.676352 3.28285 36.6753
RightShoulder  3.27436 5.46339 30.6204
RightArm  -9.92682 -22.091 10.9362
RightForeArm  25.2736 44.9958 9.43333
RightHand  -3.51205 5.63188 -36.0889
LeftUpLeg  -42.0034 -2.8489 -2.93124
LeftLeg  53.2821 0.514219 1.25321
LeftFoot  -7.68082 -0.0130402 1.85446
LeftToes  1.24762e-006 1.46925e-008 1.29056e-009
149
root  -0.527696 34.3932 5.17224 -134.185 -87.365 132.825
RightUpLeg  -6.05703 -0.799289 -4.78105
RightLeg  62.9025 2.72156 5.2311
RightFoot  -31.2741 0.785372 5.6765
RightToes  -1.46215e-006 3.27826e-006 1.63871e-007
Spine  2.50505 1.25593 -4.04507
Spine1  11.7382 0.0727773 2.19993
HEad  -8.00282 4.34779 -3.37968
LeftShoulder1  1.52569 -2.21441 -20.2369
LeftArm  2.19398 16.4882 -20.9913
LeftForeArm  16.1826 -12.0654 -7.66932
LeftHand  -0.808913 2.35612 30.6522
RightShoulder  3.14993 5.31714 29.8019
RightArm  -9.65474 -19.8923 14.2338
RightForeArm  12.3243 21.8888 4.71219
RightHand  -1.80526 2.69149 -26.0074
LeftUpLeg  -41.0304 -2.64291 -3.10884
LeftLeg  52.2577 0.309268 0.935612
LeftFoot  -6.96802 -0.046015 2.30913
LeftToes  1.24762e-006 1.46925e-008 1.29056e-009
150
root  -0.537794 34.6405 5.195 -121.489 -87.8011 120.213
RightUpLeg  -4.62712 -1.4649 -4.86426
RightLeg  60.1268 3.00949 5.17529
RightFoot  -32.0086 0.870158 5.96775
RightToes  -1.46215e-006 3.27826e-006 1.63871e-007
Spine  2.49935 0.897547 -5.52899
Spine1  12.5457 -1.00089 4.42084
HEad  -9.1772 4.80856 -4.50767
LeftShoulder1  1.5991 -2.48236 -20.2668
LeftArm  3.37331 19.58 -23.8264
LeftForeArm  22.9672 -6.42559 -11.4843
LeftHand  -1.00228 1.67512 30.8072
RightShoulder  3.10396 5.24694 29.5583
RightArm  -14.7072 -18.1691 15.7148
RightForeArm  13.7485 16.8894 6.70371
RightHand  -1.6217 2.28899 -24.3776
LeftUpLeg  -40.4639 -2.84567 -3.20852
LeftLeg  50.7204 -0.630984 -0.33338
LeftFoot  -5.99246 -0.075014 2.36164
LeftToes  1.24762e-006 1.46925e-008 1.29056e-009
